<svg width="80" height="80" viewBox="0 0 80 80" fill="none" xmlns="http://www.w3.org/2000/svg">
<path d="M65.0667 8.30002C57.2667 0.500021 43 2.06669 33.2333 11.8334C27.9 17.1667 24.8333 24.7334 24.7667 30.0334C24.7 35.3 25.6333 43 20.2667 48.3667L6.13333 62.5L10.8667 67.2334L25 53.1C30.3667 47.7334 38.0667 48.6667 43.3333 48.6C48.6 48.5334 56.2 45.4667 61.5333 40.1334C71.2667 30.3667 72.8667 16.1 65.0667 8.30002V8.30002ZM34.4 38.9334C29.3 33.8334 30.9 23.5667 37.9333 16.5334C44.9667 9.50002 55.2 7.90002 60.3333 13C65.4333 18.1 63.8333 28.3667 56.8 35.4C49.7667 42.4334 39.5333 44.0334 34.4 38.9334V38.9334ZM60 56.6667C61.7667 56.6667 63.4667 57.3667 64.7 58.6334C67.3 61.2334 67.3 65.4667 64.7 68.0667C63.4667 69.3 61.7667 70 60 70C58.2333 70 56.5333 69.3 55.3 68.0334C52.7 65.4334 52.7 61.2 55.3 58.6C56.5333 57.3667 58.2333 56.6667 60 56.6667ZM60 50C57.36 49.9947 54.7778 50.7737 52.5812 52.2381C50.3845 53.7025 48.6723 55.7864 47.6617 58.2254C46.6511 60.6643 46.3877 63.3485 46.9049 65.9374C47.4221 68.5263 48.6966 70.9032 50.5667 72.7667C53.1667 75.3667 56.6 76.6667 60 76.6667C62.64 76.672 65.2222 75.893 67.4188 74.4286C69.6155 72.9642 71.3277 70.8803 72.3383 68.4414C73.3489 66.0024 73.6123 63.3182 73.0951 60.7293C72.5779 58.1405 71.3034 55.7635 69.4333 53.9C68.1944 52.6619 66.7235 51.6802 65.1049 51.011C63.4862 50.3418 61.7515 49.9983 60 50V50Z" fill="black" fill-opacity="0.36"/>
</svg>
