<svg width="82" height="80" viewBox="0 0 82 80" fill="none" xmlns="http://www.w3.org/2000/svg">
<path fill-rule="evenodd" clip-rule="evenodd" d="M40.9995 10C40.9998 10 41 10 41 13.3333L41 16.6667L40.7484 16.667C40.5816 16.6674 40.3352 16.6681 40.019 16.6696C39.3865 16.6726 38.475 16.6785 37.3627 16.6904C35.1368 16.7142 32.1133 16.7618 28.9157 16.8569C25.7128 16.952 22.362 17.094 19.4737 17.3047C16.5134 17.5206 14.3137 17.792 13.2178 18.0806C12.2222 18.3667 11.3186 18.9084 10.5971 19.6522C9.89336 20.3778 9.387 21.2706 9.12536 22.2458C8.1269 27.8246 7.63862 33.4827 7.66662 39.1502L7.66681 39.1876C7.63108 44.8783 8.11568 50.5602 9.11491 56.1624C9.40367 57.0879 9.9151 57.9294 10.6053 58.6124C11.3283 59.328 12.2231 59.8456 13.2038 60.1156C14.2949 60.4057 16.5007 60.6784 19.4737 60.8953C22.362 61.106 25.7128 61.248 28.9157 61.3431C32.1133 61.4382 35.1368 61.4858 37.3627 61.5096C38.475 61.5215 39.3865 61.5274 40.019 61.5304C40.3352 61.5319 40.5816 61.5326 40.7484 61.533H41.2516C41.4184 61.5326 41.6648 61.5319 41.981 61.5304C42.6135 61.5274 43.525 61.5215 44.6373 61.5096C46.8631 61.4858 49.8867 61.4382 53.0843 61.3431C56.2872 61.248 59.638 61.106 62.5263 60.8953C65.4866 60.6794 67.6863 60.408 68.7822 60.1194C69.7778 59.8333 70.6814 59.2916 71.4029 58.5478C72.1066 57.8223 72.613 56.9294 72.8746 55.9542C73.8653 50.4178 74.3536 44.8031 74.3334 39.1786L74.3332 39.1457C74.3691 33.4353 73.8809 27.7336 72.8747 22.1126C72.613 21.1373 72.1067 20.2444 71.4029 19.5189C70.6897 18.7836 69.7985 18.2458 68.8163 17.9572C67.6832 17.6907 65.4754 17.4449 62.5473 17.2499C59.6531 17.0572 56.2978 16.9274 53.0929 16.8404C49.893 16.7536 46.8674 16.7101 44.6404 16.6884C43.5274 16.6775 42.6153 16.6721 41.9823 16.6694L41.2522 16.667L41 16.6667L41 13.3333C41 10 40.9998 10 40.9995 10L41.2657 10.0003C41.4374 10.0007 41.6891 10.0014 42.0109 10.0028C42.6544 10.0055 43.5788 10.011 44.7055 10.022C46.9576 10.044 50.0237 10.088 53.2737 10.1762C56.5189 10.2643 59.9719 10.397 62.9902 10.598C65.9224 10.7933 68.705 11.0672 70.4574 11.4951C70.4965 11.5047 70.5354 11.5149 70.5741 11.5259C72.7077 12.1295 74.6443 13.2855 76.1881 14.8772C77.732 16.4688 78.8285 18.4396 79.3669 20.5906L76.1333 21.4L79.4137 20.8083C80.5067 26.8674 81.0377 33.0144 81 39.1711C81.0208 45.2357 80.4899 51.2897 79.4138 57.2581C79.4006 57.3313 79.385 57.4039 79.3669 57.476C78.8285 59.627 77.732 61.5979 76.1881 63.1895C74.6443 64.7811 72.7077 65.9371 70.5741 66.5408L70.5279 66.5535C68.749 67.0292 65.9422 67.3305 63.0112 67.5443C59.987 67.7649 56.5294 67.9104 53.2823 68.0069C50.0299 68.1035 46.9618 68.1517 44.7086 68.1758C43.5813 68.1879 42.6563 68.1939 42.0123 68.197C41.6902 68.1985 41.4383 68.1992 41.2663 68.1996L41.0015 68.2L40.7337 68.1996C40.5617 68.1992 40.3098 68.1985 39.9877 68.197C39.3437 68.1939 38.4187 68.1879 37.2914 68.1758C35.0381 68.1517 31.9701 68.1035 28.7177 68.0069C25.4706 67.9104 22.013 67.7649 18.9888 67.5443C16.0578 67.3305 13.251 67.0292 11.4721 66.5535L11.4536 66.5485C9.36336 65.9766 7.45597 64.8752 5.9157 63.3508C4.37543 61.8264 3.25436 59.9305 2.6608 57.8463C2.63067 57.7405 2.6058 57.6333 2.58627 57.525C1.49347 51.4667 0.962447 45.3204 0.999948 39.1644C0.970901 33.0545 1.50188 26.9548 2.58625 20.9418C2.59943 20.8687 2.61505 20.796 2.63308 20.724C3.17148 18.573 4.26798 16.6021 5.81185 15.0105C7.35571 13.4189 9.29226 12.2629 11.4259 11.6592L11.4721 11.6465C13.251 11.1708 16.0578 10.8695 18.9888 10.6557C22.013 10.4351 25.4706 10.2896 28.7177 10.1931C31.9701 10.0965 35.0381 10.0483 37.2914 10.0241C38.4187 10.0121 39.3437 10.0061 39.9877 10.003C40.3098 10.0015 40.5617 10.0008 40.7337 10.0004L40.9995 10Z" fill="black" fill-opacity="0.36"/>
<path fill-rule="evenodd" clip-rule="evenodd" d="M31.8239 25.3854C32.85 24.7885 34.116 24.7823 35.1478 25.3691L54.3145 36.2691C55.3564 36.8617 56 37.968 56 39.1667C56 40.3653 55.3564 41.4717 54.3145 42.0642L35.1478 52.9642C34.116 53.551 32.85 53.5448 31.8239 52.948C30.7979 52.3511 30.1667 51.2537 30.1667 50.0667V28.2667C30.1667 27.0797 30.7979 25.9822 31.8239 25.3854ZM36.8333 33.997V44.3364L45.9238 39.1667L36.8333 33.997Z" fill="black" fill-opacity="0.36"/>
</svg>
