<svg width="80" height="80" viewBox="0 0 80 80" fill="none" xmlns="http://www.w3.org/2000/svg">
<path d="M40 36.4641L45.3828 31.0813C40.3242 25.2032 37.5451 17.7036 37.5516 9.94849C37.5516 9.16724 37.5812 8.37817 37.6359 7.60474C30.7108 8.09273 24.1261 10.7951 18.8547 15.3125L40 36.4641ZM48.9281 27.536L61.1453 15.3125C55.9502 10.8595 49.4771 8.16803 42.6562 7.62505C42.5922 8.39067 42.5562 9.16567 42.5562 9.94849C42.5498 16.3772 44.8055 22.6032 48.9281 27.536ZM52.4641 31.0719C57.3962 35.1962 63.6223 37.4536 70.0516 37.4485C70.8328 37.4485 71.6141 37.4125 72.375 37.3485C71.833 30.526 69.1415 24.0511 64.6875 18.8547L52.4641 31.0719ZM27.5359 48.9282C22.6039 44.8036 16.3778 42.5462 9.94843 42.5516C9.1651 42.5516 8.39062 42.5849 7.62499 42.6516C8.16701 49.4741 10.8585 55.949 15.3125 61.1454L27.5359 48.9282ZM40 43.536L34.6172 48.9188C39.6758 54.7969 42.4549 62.2965 42.4484 70.0516C42.4484 70.8329 42.4187 71.6219 42.3641 72.3954C49.2893 71.9077 55.874 69.2053 61.1453 64.6876L40 43.536ZM70.0516 42.4485C62.2964 42.455 54.7969 39.6759 48.9187 34.6172L43.5359 40L64.6875 61.1454C69.2084 55.8751 71.914 49.2904 72.4047 42.3641C71.6219 42.4188 70.8391 42.4485 70.0516 42.4485ZM36.4641 40L15.3125 18.8547C10.7913 24.1248 8.08562 30.7096 7.59531 37.636C8.37656 37.5813 9.15781 37.5516 9.93906 37.5516C17.6942 37.5451 25.1937 40.3242 31.0719 45.3829L36.4641 40ZM18.8547 64.6876C24.0498 69.1406 30.5229 71.8321 37.3437 72.3751C37.4094 71.6094 37.4427 70.8349 37.4437 70.0516C37.4491 63.6223 35.1917 57.3961 31.0672 52.4641L18.8547 64.6876Z" fill="black" fill-opacity="0.36"/>
</svg>
