<svg width="80" height="81" viewBox="0 0 80 81" fill="none" xmlns="http://www.w3.org/2000/svg">
<g filter="url(#filter0_d_2107_2461)">
<path d="M40 7.5C22.0797 7.5 7.5 22.0797 7.5 40C7.5 57.9203 22.0797 72.5 40 72.5C57.9203 72.5 72.5 57.9203 72.5 40C72.5 22.0797 57.9203 7.5 40 7.5ZM62.3438 55H55.2781C55.0592 54.9995 54.8442 54.9415 54.6547 54.8318C54.4653 54.7221 54.3079 54.5646 54.1984 54.375L51.6766 50.05C51.5105 49.7672 51.4623 49.4305 51.5422 49.1125L53.8641 39.75C53.9106 39.5614 54.0006 39.3862 54.1267 39.2383C54.2528 39.0905 54.4117 38.9741 54.5906 38.8984L58.9813 37.0391C59.1958 36.9481 59.4315 36.9189 59.6618 36.9548C59.892 36.9907 60.1077 37.0902 60.2844 37.2422L66.7891 42.8391C66.9494 42.9771 67.0721 43.1536 67.1456 43.352C67.2191 43.5504 67.2411 43.7642 67.2094 43.9734C66.6707 47.6693 65.3795 51.2153 63.4156 54.3922C63.3047 54.5775 63.1476 54.7308 62.9598 54.8373C62.7719 54.9439 62.5597 54.9999 62.3438 55ZM21.0188 37.0516L25.4094 38.9109C25.5883 38.9866 25.7472 39.103 25.8733 39.2508C25.9994 39.3987 26.0894 39.5739 26.1359 39.7625L28.4578 49.125C28.5377 49.443 28.4895 49.7797 28.3234 50.0625L25.8016 54.375C25.6921 54.5646 25.5347 54.7221 25.3453 54.8318C25.1558 54.9415 24.9408 54.9995 24.7219 55H17.6562C17.4426 55.0001 17.2324 54.9455 17.0458 54.8413C16.8593 54.737 16.7025 54.5867 16.5906 54.4047C14.6268 51.2278 13.3356 47.6818 12.7969 43.9859C12.7652 43.7767 12.7871 43.5629 12.8607 43.3645C12.9342 43.1661 13.0568 42.9896 13.2172 42.8516L19.7219 37.2547C19.8979 37.1039 20.1125 37.0051 20.3415 36.9692C20.5705 36.9333 20.805 36.9618 21.0188 37.0516ZM61.1656 23.4203L58.3422 31.4484C58.2854 31.6125 58.1951 31.763 58.077 31.8902C57.9589 32.0174 57.8156 32.1187 57.6562 32.1875L53.0344 34.1453C52.8223 34.235 52.5895 34.2644 52.3618 34.2302C52.134 34.1961 51.9202 34.0996 51.7438 33.9516L42.9531 26.5781C42.8127 26.4619 42.6993 26.3164 42.621 26.1517C42.5428 25.9871 42.5015 25.8073 42.5 25.625V20.3781C42.5001 20.1725 42.5509 19.9702 42.648 19.7889C42.745 19.6077 42.8852 19.4532 43.0563 19.3391L49.7484 14.8797C49.9231 14.7631 50.1243 14.6924 50.3335 14.6741C50.5427 14.6558 50.7531 14.6905 50.9453 14.775C54.796 16.4545 58.2133 18.9895 60.9375 22.1875C61.0807 22.3547 61.1772 22.5568 61.2173 22.7732C61.2574 22.9897 61.2395 23.2129 61.1656 23.4203ZM30.25 14.8797L36.9438 19.3391C37.1148 19.4532 37.255 19.6077 37.352 19.7889C37.4491 19.9702 37.4999 20.1725 37.5 20.3781V25.625C37.5 25.8076 37.46 25.988 37.3828 26.1535C37.3056 26.3189 37.1931 26.4655 37.0531 26.5828L28.2625 33.9563C28.0861 34.1043 27.8722 34.2007 27.6445 34.2349C27.4167 34.2691 27.184 34.2397 26.9719 34.15L22.3438 32.1875C22.1834 32.1196 22.0389 32.0189 21.9197 31.8919C21.8005 31.7649 21.7092 31.6144 21.6516 31.45L18.8281 23.4219C18.7548 23.2137 18.7378 22.9899 18.779 22.7731C18.8201 22.5563 18.9179 22.3542 19.0625 22.1875C21.7883 18.9863 25.2084 16.449 29.0625 14.7687C29.254 14.6868 29.4629 14.6541 29.6703 14.6735C29.8777 14.6928 30.077 14.7637 30.25 14.8797ZM32.9547 66.0453L29.8719 58.2812C29.8014 58.1048 29.7721 57.9145 29.7861 57.725C29.8002 57.5355 29.8573 57.3516 29.9531 57.1875L32.3234 53.125C32.4329 52.9354 32.5903 52.7779 32.7797 52.6682C32.9692 52.5585 33.1842 52.5005 33.4031 52.5H46.5969C46.8158 52.5005 47.0308 52.5585 47.2203 52.6682C47.4097 52.7779 47.5671 52.9354 47.6766 53.125L50.0484 57.1875C50.1445 57.3515 50.2019 57.5353 50.2162 57.7248C50.2306 57.9143 50.2015 58.1046 50.1312 58.2812L47.0703 66.0422C46.9955 66.2319 46.8753 66.4005 46.7203 66.5331C46.5654 66.6658 46.3803 66.7585 46.1813 66.8031C42.1195 67.7353 37.8993 67.7353 33.8375 66.8031C33.6399 66.7579 33.4563 66.6652 33.3026 66.5332C33.1488 66.4012 33.0294 66.2337 32.9547 66.0453Z" fill="black" fill-opacity="0.36"/>
</g>
<defs>
<filter id="filter0_d_2107_2461" x="-4" y="0" width="88" height="88" filterUnits="userSpaceOnUse" color-interpolation-filters="sRGB">
<feFlood flood-opacity="0" result="BackgroundImageFix"/>
<feColorMatrix in="SourceAlpha" type="matrix" values="0 0 0 0 0 0 0 0 0 0 0 0 0 0 0 0 0 0 127 0" result="hardAlpha"/>
<feOffset dy="4"/>
<feGaussianBlur stdDeviation="2"/>
<feComposite in2="hardAlpha" operator="out"/>
<feColorMatrix type="matrix" values="0 0 0 0 0 0 0 0 0 0 0 0 0 0 0 0 0 0 0.25 0"/>
<feBlend mode="normal" in2="BackgroundImageFix" result="effect1_dropShadow_2107_2461"/>
<feBlend mode="normal" in="SourceGraphic" in2="effect1_dropShadow_2107_2461" result="shape"/>
</filter>
</defs>
</svg>
