<svg width="80" height="80" viewBox="0 0 80 80" fill="none" xmlns="http://www.w3.org/2000/svg">
<path d="M47.5667 20C45.7333 23.1667 46.8333 27.2667 50 29.1C53.1667 30.9333 57.2667 29.8333 59.1 26.6667C60.9333 23.5 59.8333 19.4 56.6667 17.5667C53.5 15.7333 49.4 16.8333 47.5667 20Z" fill="black" fill-opacity="0.36"/>
<path d="M52.8 34.7L44.1333 29.7C36.2 25.1 33.4667 14.9 38.0667 6.96664L32.3 3.63331C27 12.7666 28.6667 24.0333 35.5333 31.3333L18.3667 61.0666L24.1333 64.4L29.1333 55.7333L34.9 59.0666L24.9 76.4L30.6667 79.7333L51.6333 43.4333C53.5537 46.0392 54.674 49.1477 54.8575 52.3796C55.041 55.6114 54.2797 58.8268 52.6667 61.6333L58.4333 64.9666C63.7667 55.8 62.7 43.0333 52.8 34.7V34.7ZM42.5 12.6666C44.9 14.0333 47.9333 13.2333 49.3333 10.8333C50.7 8.43331 49.9 5.39997 47.5 3.99997C46.3521 3.36036 44.9987 3.198 43.7321 3.54796C42.4655 3.89792 41.3875 4.73211 40.7308 5.87031C40.0742 7.00852 39.8916 8.35937 40.2227 9.63103C40.5537 10.9027 41.3717 11.9931 42.5 12.6666V12.6666Z" fill="black" fill-opacity="0.36"/>
</svg>
