<svg width="80" height="80" viewBox="0 0 80 80" fill="none" xmlns="http://www.w3.org/2000/svg">
<path d="M56.6667 20C60.3486 20 63.3333 17.0153 63.3333 13.3334C63.3333 9.65146 60.3486 6.66669 56.6667 6.66669C52.9848 6.66669 50 9.65146 50 13.3334C50 17.0153 52.9848 20 56.6667 20Z" fill="black" fill-opacity="0.36"/>
<path d="M52.59 36.5633C53.3552 37.7036 54.4528 38.5808 55.7337 39.0757C57.0147 39.5707 58.4169 39.6595 59.75 39.33L70.8033 36.5667L69.1933 30.1L58.14 32.8634L53.5433 25.9733C52.5612 24.5019 51.0371 23.4786 49.3033 23.1267L36.4833 20.56C35.0491 20.2722 33.5601 20.4645 32.2461 21.1074C30.9321 21.7502 29.8663 22.8077 29.2133 24.1167L23.6867 35.17L29.65 38.1534L35.1767 27.0967L41.7333 28.41L24.78 56.6667H10V63.3334H24.78C27.1067 63.3334 29.2967 62.0933 30.4967 60.0967L36.89 49.4434L54.12 52.89L60.1733 71.0534L66.4933 68.9434L60.4433 50.7833C60.07 49.6684 59.4093 48.6716 58.528 47.8933C57.6467 47.115 56.5759 46.5827 55.4233 46.35L45.2933 44.3267L51.2 34.48L52.59 36.5633Z" fill="black" fill-opacity="0.36"/>
</svg>
