<svg width="80" height="80" viewBox="0 0 80 80" fill="none" xmlns="http://www.w3.org/2000/svg">
<path d="M20 13.3666C11.9333 19.4666 6.66666 29.1 6.66666 40C6.66666 44.8666 7.73332 49.5 9.63332 53.7L20 47.7V13.3666ZM36.6667 38.0666V6.83331C33.1333 7.19998 29.7667 8.09998 26.6667 9.46665V43.8666L36.6667 38.0666ZM40 43.8333L12.9667 59.4333C15 62.2333 17.4333 64.7333 20.2333 66.7666L50 49.6333L40 43.8333ZM43.3333 26.5333V38.0666L70.3667 53.6666C71.7667 50.5666 72.7 47.2333 73.1 43.7333L43.3333 26.5333ZM26.9 70.6666C30.9333 72.3666 35.3333 73.3333 40 73.3333C51.1333 73.3333 60.9667 67.8333 67.0333 59.4666L56.6667 53.4666L26.9 70.6666ZM73.0667 36.0333C71.2333 20.6 58.8667 8.36665 43.3333 6.83331V18.8333L73.0667 36.0333Z" fill="black" fill-opacity="0.36"/>
</svg>
