<svg width="80" height="80" viewBox="0 0 80 80" fill="none" xmlns="http://www.w3.org/2000/svg">
<path d="M63.3433 26.68C67.0289 26.68 70.0166 23.6923 70.0166 20.0067C70.0166 16.3211 67.0289 13.3334 63.3433 13.3334C59.6577 13.3334 56.67 16.3211 56.67 20.0067C56.67 23.6923 59.6577 26.68 63.3433 26.68Z" fill="black" fill-opacity="0.36"/>
<path d="M62.9167 44.0633C61.0267 45.5733 59.6567 46.6667 56.6567 46.6667C53.66 46.6667 52.3633 45.63 50.4033 44.0633C48.1367 42.2533 45.32 40 39.98 40C34.6433 40 31.83 42.2533 29.5667 44.0633C27.6067 45.63 26.3167 46.6667 23.3167 46.6667C20.3233 46.6667 19.03 45.63 17.0733 44.0667C14.81 42.2533 12 40 6.66667 40V46.6667C9.65667 46.6667 10.95 47.7033 12.9067 49.2667C15.17 51.08 17.9833 53.3333 23.3167 53.3333C28.65 53.3333 31.47 51.08 33.7333 49.2667C35.69 47.7 36.9867 46.6667 39.98 46.6667C42.98 46.6667 44.35 47.76 46.24 49.27C48.5033 51.08 51.32 53.3333 56.6567 53.3333C61.9967 53.3333 64.8133 51.08 67.08 49.27C69.04 47.7033 70.3367 46.6667 73.3333 46.6667V40C67.9967 40 65.18 42.2533 62.9167 44.0633ZM56.6567 63.3333C53.66 63.3333 52.3633 62.2967 50.4033 60.73C48.1367 58.92 45.32 56.6667 39.98 56.6667C34.6433 56.6667 31.83 58.92 29.5667 60.73C27.6067 62.2967 26.3167 63.3333 23.3167 63.3333C20.3233 63.3333 19.03 62.2967 17.0733 60.7333C14.81 58.92 12 56.6667 6.66667 56.6667V63.3333C9.65667 63.3333 10.95 64.37 12.9067 65.9333C15.17 67.7467 17.9833 70 23.3167 70C28.65 70 31.47 67.7467 33.7333 65.9333C35.69 64.3667 36.9867 63.3333 39.98 63.3333C42.98 63.3333 44.35 64.4267 46.24 65.9367C48.5033 67.7467 51.32 70 56.6567 70C61.9967 70 64.8133 67.7467 67.08 65.9367C69.04 64.37 70.3367 63.3333 73.3333 63.3333V56.6667C67.9967 56.6667 65.18 58.92 62.9167 60.73C61.0267 62.24 59.6567 63.3333 56.6567 63.3333ZM36.6667 18.0633L43.68 25.0767L36.8233 33.6433C37.7767 33.4567 38.81 33.3333 39.98 33.3333C45.32 33.3333 48.1367 35.5867 50.4033 37.3967C52.3633 38.9633 53.66 40 56.6567 40C59.6567 40 61.0267 38.9067 62.9167 37.3967C63.3567 37.0467 63.83 36.6733 64.3267 36.31L57.34 29.3433L57.3567 29.3267L39.0233 10.9933C38.714 10.6835 38.3467 10.4377 37.9423 10.27C37.5379 10.1023 37.1045 10.016 36.6667 10.016C36.2289 10.016 35.7954 10.1023 35.391 10.27C34.9866 10.4377 34.6193 10.6835 34.31 10.9933L20.9767 24.3267L25.69 29.04L36.6667 18.0633Z" fill="black" fill-opacity="0.36"/>
</svg>
